<?xml version="1.0" encoding="utf-8"?>
<!-- Generator: Adobe Illustrator 27.0.0, SVG Export Plug-In . SVG Version: 6.00 Build 0)  -->
<svg version="1.1" id="Layer_1" xmlns="http://www.w3.org/2000/svg" xmlns:xlink="http://www.w3.org/1999/xlink" x="0px" y="0px"
	 viewBox="0 0 2000 2000" style="enable-background:new 0 0 2000 2000;" xml:space="preserve">
<style type="text/css">
	.st0{fill:#FFC26F;}
</style>
<g>
	<path class="st0" d="M1343.92,258h-11.45c-26.39,0-47.79,21.4-47.79,47.79v200.62c0,26.39,21.4,47.79,47.79,47.79h11.45
		c26.39,0,47.79-21.4,47.79-47.79V305.79C1391.7,279.4,1370.31,258,1343.92,258z"/>
	<path class="st0" d="M1126.52,259.02l-26.88-0.05c-22.27-0.04-40.35,17.98-40.39,40.25l-0.63,211.07
		c-0.04,22.27,17.98,40.35,40.25,40.39l26.88,0.05c22.27,0.04,40.35-17.98,40.39-40.25l0.63-211.07
		C1166.81,277.14,1148.79,259.06,1126.52,259.02z"/>
	<path class="st0" d="M1122.58,674.83h-17.42c-25.71,0-46.54,20.84-46.54,46.54v974.18c0,25.71,20.84,46.54,46.54,46.54h17.42
		c25.71,0,46.54-20.84,46.54-46.54V721.37C1169.13,695.66,1148.29,674.83,1122.58,674.83z"/>
	<path class="st0" d="M1342.36,674.83h-6.97c-28.87,0-52.27,23.4-52.27,52.27v764.61c0,28.87,23.4,52.27,52.27,52.27h6.97
		c28.87,0,52.27-23.4,52.27-52.27V727.09C1394.63,698.23,1371.22,674.83,1342.36,674.83z"/>
	<path class="st0" d="M667.6,1214.68h-11.95c-27.22,0-49.28,22.06-49.28,49.28v270.61c0,27.22,22.06,49.28,49.28,49.28h11.95
		c27.22,0,49.28-22.06,49.28-49.28v-270.61C716.88,1236.75,694.82,1214.68,667.6,1214.68z"/>
	<path class="st0" d="M898.33,1289.85h-20.91c-23.51,0-42.56,19.06-42.56,42.56v359.41c0,23.51,19.06,42.56,42.56,42.56h20.91
		c23.51,0,42.56-19.06,42.56-42.56v-359.41C940.89,1308.9,921.83,1289.85,898.33,1289.85z"/>
</g>
</svg>
