<?xml version="1.0" encoding="utf-8"?>
<!-- Generator: Adobe Illustrator 27.0.0, SVG Export Plug-In . SVG Version: 6.00 Build 0)  -->
<svg version="1.1" xmlns="http://www.w3.org/2000/svg" xmlns:xlink="http://www.w3.org/1999/xlink" x="0px" y="0px"
	 viewBox="0 0 2000 2000" style="enable-background:new 0 0 2000 2000;" xml:space="preserve">
<style type="text/css">
	.st0{fill:#242028;}
	.st1{fill:#25A6E8;}
</style>
<g id="Layer_2">
</g>
<g id="Layer_1">
	<circle class="st0" cx="1000.5" cy="1000.05" r="810.23"/>
	<g>
		<path class="st1" d="M1198.21,511.05h-7.54c-17.39,0-31.49,14.1-31.49,31.49v132.2c0,17.39,14.1,31.49,31.49,31.49h7.54
			c17.39,0,31.49-14.1,31.49-31.49v-132.2C1229.7,525.15,1215.6,511.05,1198.21,511.05z"/>
		<path class="st1" d="M1054.95,511.72l-17.71-0.03c-14.67-0.03-26.59,11.85-26.62,26.52l-0.41,139.09
			c-0.03,14.67,11.85,26.59,26.52,26.62l17.71,0.03c14.67,0.03,26.59-11.85,26.62-26.52l0.41-139.09
			C1081.5,523.66,1069.62,511.75,1054.95,511.72z"/>
		<path class="st1" d="M1052.35,785.73h-11.48c-16.94,0-30.67,13.73-30.67,30.67v641.97c0,16.94,13.73,30.67,30.67,30.67h11.48
			c16.94,0,30.67-13.73,30.67-30.67V816.4C1083.03,799.46,1069.29,785.73,1052.35,785.73z"/>
		<path class="st1" d="M1197.18,785.73h-4.59c-19.02,0-34.44,15.42-34.44,34.44v503.86c0,19.02,15.42,34.44,34.44,34.44h4.59
			c19.02,0,34.44-15.42,34.44-34.44V820.18C1231.63,801.15,1216.21,785.73,1197.18,785.73z"/>
		<path class="st1" d="M752.53,1141.49h-7.87c-17.94,0-32.48,14.54-32.48,32.48v178.33c0,17.94,14.54,32.48,32.48,32.48h7.87
			c17.94,0,32.48-14.54,32.48-32.48v-178.33C785.01,1156.03,770.47,1141.49,752.53,1141.49z"/>
		<path class="st1" d="M904.57,1191.02H890.8c-15.49,0-28.05,12.56-28.05,28.05v236.84c0,15.49,12.56,28.05,28.05,28.05h13.78
			c15.49,0,28.05-12.56,28.05-28.05v-236.84C932.62,1203.58,920.06,1191.02,904.57,1191.02z"/>
	</g>
</g>
</svg>
