<svg width="593" height="802" viewBox="0 0 593 802" fill="none" xmlns="http://www.w3.org/2000/svg">
<path d="M540.324 99.8651L535.04 98.5284C522.864 95.4475 510.491 102.824 507.41 115L483.989 207.57C480.908 219.747 488.284 232.119 500.461 235.2L505.744 236.537C517.921 239.618 530.294 232.242 533.374 220.065L556.796 127.495C559.872 115.317 552.5 102.946 540.324 99.8651Z" fill="#05070E"/>
<path d="M439.885 74.949L427.488 71.7879C417.217 69.1695 406.771 75.3736 404.153 85.6447L379.221 182.963C376.603 193.234 382.807 203.68 393.078 206.298L405.475 209.459C415.746 212.078 426.192 205.874 428.81 195.602L453.742 98.2846C456.361 88.0135 450.157 77.5674 439.885 74.949Z" fill="#05070E"/>
<path d="M389.521 266.356L381.483 264.322C369.62 261.32 357.575 268.505 354.575 280.363L240.846 729.867C237.844 741.73 245.028 753.774 256.887 756.774L264.925 758.808C276.788 761.809 288.832 754.625 291.832 742.767L405.562 293.263C408.568 281.401 401.384 269.357 389.521 266.356Z" fill="#05070E"/>
<path d="M490.952 292.014L487.736 291.2C474.415 287.829 460.886 295.895 457.515 309.216L368.252 662.02C364.882 675.341 372.947 688.87 386.268 692.241L389.484 693.055C402.805 696.425 416.334 688.36 419.705 675.038L508.969 322.229C512.339 308.913 504.269 295.383 490.952 292.014Z" fill="#05070E"/>
<path d="M116.565 462.34L111.051 460.945C98.4909 457.767 85.7367 465.37 82.5589 477.93L50.9669 602.794C47.7892 615.354 55.3927 628.108 67.9524 631.286L73.4664 632.681C86.0261 635.859 98.7804 628.255 101.958 615.695L133.55 490.831C136.727 478.276 129.124 465.517 116.565 462.34Z" fill="#05070E"/>
<path d="M214.246 523.96L204.598 521.518C193.75 518.774 182.735 525.344 179.991 536.188L138.033 702.026C135.288 712.874 141.859 723.889 152.702 726.632L162.35 729.073C173.198 731.818 184.213 725.247 186.957 714.404L228.915 548.566C231.66 537.718 225.089 526.703 214.246 523.96Z" fill="#05070E"/>
<path d="M512.958 95.822L518.241 97.1587C529.426 99.9886 536.198 111.353 533.373 122.54C533.372 122.541 533.372 122.541 533.372 122.541L509.951 215.11C507.121 226.296 495.755 233.072 484.57 230.241L479.287 228.905C468.101 226.075 461.325 214.709 464.155 203.523L487.576 110.953C490.406 99.7677 501.772 92.9919 512.958 95.822Z" fill="#FFAE63" stroke="black" stroke-width="3.70225"/>
<path d="M417.8 72.2408L417.8 72.2408C427.08 74.6065 432.685 84.0438 430.321 93.3233C430.321 93.324 430.321 93.3247 430.321 93.3254L405.389 190.641L405.389 190.643C403.023 199.924 393.584 205.529 384.304 203.164L371.907 200.002C362.627 197.637 357.022 188.199 359.387 178.919C359.387 178.919 359.387 178.918 359.387 178.918L384.318 81.6021L384.319 81.6C386.685 72.3193 396.123 66.714 405.403 69.0797C405.403 69.0797 405.403 69.0797 405.403 69.0797L417.8 72.2408Z" fill="#FFAE63" stroke="black" stroke-width="3.70225"/>
<path d="M382.144 288.307L382.144 288.308L268.414 737.812C265.665 748.679 254.627 755.263 243.755 752.512L235.717 750.479C224.85 747.729 218.266 736.691 221.017 725.82L334.746 276.316C337.496 265.449 348.533 258.865 359.405 261.616L367.443 263.649C378.316 266.4 384.898 277.438 382.144 288.307Z" fill="#FFAE63" stroke="black" stroke-width="3.70225"/>
<path d="M465.658 288.493L468.874 289.307C481.2 292.426 488.67 304.949 485.551 317.274L396.287 670.083C393.167 682.413 380.645 689.879 368.315 686.759L365.099 685.945C352.769 682.826 345.304 670.303 348.423 657.973L437.687 305.169C440.806 292.839 453.328 285.374 465.658 288.493Z" fill="#FFAE63" stroke="black" stroke-width="3.70225"/>
<path d="M88.9726 458.236L94.4865 459.631C106.055 462.558 113.057 474.31 110.132 485.874L78.5395 610.739C75.6126 622.307 63.865 629.311 52.2964 626.384L46.7825 624.988C35.2138 622.061 28.2105 610.314 31.1375 598.745L62.7294 473.881C65.6564 462.312 77.4039 455.309 88.9726 458.236Z" fill="#FFAE63" stroke="black" stroke-width="3.70225"/>
<path d="M182.52 518.803L192.168 521.244C202.021 523.737 207.991 533.746 205.497 543.602L163.538 709.44C161.045 719.293 151.037 725.263 141.18 722.769L131.532 720.328C121.679 717.835 115.709 707.827 118.203 697.97L160.162 532.132C162.655 522.28 172.663 516.309 182.52 518.803Z" fill="#FFAE63" stroke="black" stroke-width="3.70225"/>
<path d="M179.254 177.289C178.814 174.803 177.716 172.481 176.074 170.564C174.432 168.647 172.307 167.204 169.918 166.387L127.579 151.904C126.858 151.638 126.243 151.143 125.829 150.496C125.414 149.849 125.222 149.085 125.281 148.319C125.341 147.552 125.648 146.826 126.157 146.251C126.667 145.675 127.35 145.282 128.103 145.13L172.167 137.325C174.652 136.886 176.973 135.789 178.891 134.148C180.808 132.507 182.251 130.383 183.069 127.996L197.552 85.6566C197.816 84.9326 198.31 84.3151 198.958 83.898C199.606 83.481 200.373 83.2875 201.142 83.3469C201.91 83.4064 202.638 83.7156 203.214 84.2274C203.79 84.7391 204.183 85.4253 204.333 86.1813L212.123 130.245C212.563 132.73 213.662 135.052 215.304 136.97C216.945 138.887 219.071 140.329 221.459 141.147L263.8 155.623C264.527 155.885 265.148 156.379 265.567 157.028C265.986 157.677 266.181 158.446 266.122 159.217C266.062 159.988 265.751 160.717 265.237 161.294C264.723 161.871 264.033 162.264 263.274 162.411L219.211 170.201C216.726 170.641 214.403 171.74 212.486 173.381C210.569 175.023 209.126 177.149 208.309 179.537L193.826 221.877C193.562 222.601 193.068 223.219 192.419 223.636C191.771 224.053 191.005 224.246 190.236 224.187C189.468 224.127 188.74 223.818 188.164 223.306C187.587 222.794 187.194 222.108 187.045 221.352L179.254 177.289Z" fill="#FFAE63" stroke="black" stroke-width="4.73842" stroke-linecap="round" stroke-linejoin="round"/>
<path d="M461.08 722.916C460.85 721.618 460.276 720.405 459.419 719.404C458.561 718.402 457.451 717.649 456.203 717.222L434.089 709.657C433.713 709.518 433.392 709.26 433.175 708.922C432.959 708.584 432.858 708.185 432.889 707.785C432.92 707.385 433.081 707.006 433.347 706.705C433.613 706.404 433.97 706.199 434.363 706.119L457.378 702.043C458.676 701.813 459.888 701.24 460.89 700.384C461.891 699.527 462.645 698.417 463.072 697.17L470.637 675.056C470.775 674.678 471.033 674.355 471.371 674.138C471.71 673.92 472.11 673.819 472.512 673.85C472.913 673.881 473.293 674.042 473.594 674.31C473.895 674.577 474.1 674.935 474.179 675.33L478.248 698.345C478.477 699.643 479.051 700.856 479.909 701.857C480.766 702.859 481.876 703.612 483.124 704.039L505.238 711.6C505.618 711.737 505.942 711.995 506.162 712.334C506.381 712.673 506.482 713.075 506.451 713.477C506.42 713.88 506.258 714.261 505.989 714.562C505.72 714.864 505.36 715.069 504.964 715.146L481.95 719.214C480.651 719.444 479.438 720.018 478.437 720.875C477.435 721.733 476.682 722.843 476.255 724.091L468.691 746.205C468.552 746.583 468.295 746.906 467.956 747.124C467.617 747.341 467.217 747.443 466.816 747.411C466.414 747.38 466.034 747.219 465.733 746.952C465.432 746.684 465.227 746.326 465.149 745.931L461.08 722.916Z" fill="#FFAE63" stroke="black" stroke-width="3.29997" stroke-linecap="round" stroke-linejoin="round"/>
<path d="M505.62 760.655C505.482 759.876 505.138 759.149 504.623 758.548C504.109 757.947 503.442 757.495 502.694 757.239L489.425 752.7C489.199 752.617 489.007 752.462 488.877 752.259C488.747 752.056 488.687 751.817 488.705 751.576C488.724 751.336 488.82 751.109 488.98 750.928C489.14 750.748 489.354 750.625 489.59 750.577L503.399 748.131C504.177 747.994 504.905 747.65 505.506 747.136C506.107 746.621 506.559 745.956 506.815 745.208L511.354 731.939C511.437 731.712 511.592 731.519 511.795 731.388C511.998 731.257 512.238 731.197 512.479 731.215C512.72 731.234 512.948 731.331 513.128 731.491C513.309 731.652 513.432 731.867 513.479 732.104L515.92 745.912C516.058 746.691 516.402 747.419 516.917 748.02C517.432 748.621 518.098 749.073 518.846 749.329L532.115 753.865C532.343 753.948 532.537 754.102 532.669 754.306C532.8 754.509 532.861 754.75 532.843 754.992C532.824 755.233 532.727 755.462 532.565 755.643C532.404 755.824 532.188 755.947 531.95 755.993L518.142 758.434C517.363 758.572 516.635 758.916 516.034 759.431C515.433 759.945 514.981 760.611 514.725 761.36L510.186 774.629C510.103 774.855 509.949 775.049 509.745 775.18C509.542 775.31 509.302 775.371 509.061 775.352C508.82 775.334 508.592 775.237 508.412 775.076C508.231 774.916 508.108 774.701 508.061 774.464L505.62 760.655Z" fill="#FFAE63" stroke="black" stroke-width="3.29997" stroke-linecap="round" stroke-linejoin="round"/>
</svg>
