<svg width="16" height="16" viewBox="0 0 16 16" fill="none" xmlns="http://www.w3.org/2000/svg">
<g clip-path="url(#clip0_1963_46016)">
<path d="M0 11.9996C0 12.4711 0.187301 12.9232 0.520699 13.2566C0.854097 13.59 1.30628 13.7773 1.77778 13.7773H14.2222C14.6937 13.7773 15.1459 13.59 15.4793 13.2566C15.8127 12.9232 16 12.4711 16 11.9996V9.77734H0V11.9996Z" fill="#138808"/>
<path d="M16 6.22266V4.00043C16 3.52894 15.8127 3.07675 15.4793 2.74336C15.1459 2.40996 14.6937 2.22266 14.2222 2.22266H1.77778C1.30628 2.22266 0.854097 2.40996 0.520699 2.74336C0.187301 3.07675 0 3.52894 0 4.00043L0 6.22266H16Z" fill="#FF9933"/>
<path d="M0 6.07422H16V9.92622H0V6.07422Z" fill="#F7F7F7"/>
<path d="M8.00043 9.77821C8.98227 9.77821 9.77821 8.98227 9.77821 8.00043C9.77821 7.01859 8.98227 6.22266 8.00043 6.22266C7.01859 6.22266 6.22266 7.01859 6.22266 8.00043C6.22266 8.98227 7.01859 9.77821 8.00043 9.77821Z" fill="#000080"/>
<path d="M8 9.5C8.82843 9.5 9.5 8.82843 9.5 8C9.5 7.17157 8.82843 6.5 8 6.5C7.17157 6.5 6.5 7.17157 6.5 8C6.5 8.82843 7.17157 9.5 8 9.5Z" fill="#F7F7F7"/>
<path d="M8.04479 7.44479L8.00035 7.73368L7.9559 7.44479L8.00035 6.57812L8.04479 7.44479ZM7.63235 6.62657L7.81368 7.47501L7.93146 7.74257L7.89946 7.45235L7.63235 6.62657ZM7.28924 6.76879L7.6839 7.54124L7.86701 7.76924L7.76124 7.49679L7.28924 6.76879ZM6.99457 6.99457L7.5759 7.63901L7.8119 7.8119L7.63901 7.5759L6.99457 6.99457ZM6.76879 7.28924L7.49679 7.76124L7.76924 7.86701L7.54124 7.6839L6.76879 7.28924ZM6.62657 7.63235L7.45235 7.89946L7.74257 7.93146L7.47501 7.81368L6.62657 7.63235ZM6.57812 8.00035L7.44479 8.04479L7.73368 8.00035L7.44479 7.9559L6.57812 8.00035ZM6.62657 8.36835L7.47501 8.18701L7.74257 8.06924L7.45235 8.10124L6.62657 8.36835ZM6.76879 8.71146L7.54124 8.31679L7.76924 8.13368L7.49679 8.23946L6.76879 8.71146ZM6.99457 9.00613L7.63901 8.42479L7.8119 8.18879L7.5759 8.36168L6.99457 9.00613ZM7.28924 9.2319L7.76124 8.5039L7.86701 8.23146L7.6839 8.45946L7.28924 9.2319ZM7.63235 9.37412L7.89946 8.54835L7.93146 8.25812L7.81368 8.52568L7.63235 9.37412ZM8.00035 9.42257L8.04479 8.5559L8.00035 8.26701L7.9559 8.5559L8.00035 9.42257ZM8.36835 9.37412L8.18701 8.52568L8.06924 8.25812L8.10124 8.54835L8.36835 9.37412ZM8.71146 9.2319L8.31679 8.45946L8.13368 8.23146L8.23946 8.5039L8.71146 9.2319ZM9.00613 9.00613L8.42479 8.36168L8.18879 8.18879L8.36168 8.42479L9.00613 9.00613ZM9.2319 8.71146L8.5039 8.23946L8.23146 8.13368L8.45946 8.31679L9.2319 8.71146ZM9.37412 8.36835L8.54835 8.10124L8.25812 8.06924L8.52568 8.18701L9.37412 8.36835ZM9.42257 8.00035L8.5559 7.9559L8.26701 8.00035L8.5559 8.04479L9.42257 8.00035ZM9.37412 7.63235L8.52568 7.81368L8.25812 7.93146L8.54835 7.89946L9.37412 7.63235ZM9.2319 7.28924L8.45946 7.6839L8.23146 7.86701L8.5039 7.76124L9.2319 7.28924ZM9.00613 6.99457L8.36168 7.5759L8.18879 7.8119L8.42479 7.63901L9.00613 6.99457ZM8.71146 6.76879L8.23946 7.49679L8.13368 7.76924L8.31679 7.54124L8.71146 6.76879ZM8.36835 6.62657L8.10124 7.45235L8.06924 7.74257L8.18701 7.47501L8.36835 6.62657Z" fill="#6666B3"/>
<path d="M7.80373 6.60356C7.85282 6.60356 7.89262 6.56376 7.89262 6.51467C7.89262 6.46558 7.85282 6.42578 7.80373 6.42578C7.75464 6.42578 7.71484 6.46558 7.71484 6.51467C7.71484 6.56376 7.75464 6.60356 7.80373 6.60356Z" fill="#000080"/>
<path d="M7.42483 6.70512C7.47392 6.70512 7.51372 6.66532 7.51372 6.61623C7.51372 6.56714 7.47392 6.52734 7.42483 6.52734C7.37573 6.52734 7.33594 6.56714 7.33594 6.61623C7.33594 6.66532 7.37573 6.70512 7.42483 6.70512Z" fill="#000080"/>
<path d="M7.08889 6.90043C7.13798 6.90043 7.17778 6.86064 7.17778 6.81155C7.17778 6.76245 7.13798 6.72266 7.08889 6.72266C7.0398 6.72266 7 6.76245 7 6.81155C7 6.86064 7.0398 6.90043 7.08889 6.90043Z" fill="#000080"/>
<path d="M6.81155 7.17582C6.86064 7.17582 6.90043 7.13603 6.90043 7.08694C6.90043 7.03784 6.86064 6.99805 6.81155 6.99805C6.76245 6.99805 6.72266 7.03784 6.72266 7.08694C6.72266 7.13603 6.76245 7.17582 6.81155 7.17582Z" fill="#000080"/>
<path d="M6.61623 7.51567C6.66532 7.51567 6.70512 7.47587 6.70512 7.42678C6.70512 7.37769 6.66532 7.33789 6.61623 7.33789C6.56714 7.33789 6.52734 7.37769 6.52734 7.42678C6.52734 7.47587 6.56714 7.51567 6.61623 7.51567Z" fill="#000080"/>
<path d="M6.51467 7.89262C6.56376 7.89262 6.60356 7.85282 6.60356 7.80373C6.60356 7.75464 6.56376 7.71484 6.51467 7.71484C6.46558 7.71484 6.42578 7.75464 6.42578 7.80373C6.42578 7.85282 6.46558 7.89262 6.51467 7.89262Z" fill="#000080"/>
<path d="M6.51467 8.28325C6.56376 8.28325 6.60356 8.24345 6.60356 8.19436C6.60356 8.14527 6.56376 8.10547 6.51467 8.10547C6.46558 8.10547 6.42578 8.14527 6.42578 8.19436C6.42578 8.24345 6.46558 8.28325 6.51467 8.28325Z" fill="#000080"/>
<path d="M6.61623 8.66215C6.66532 8.66215 6.70512 8.62236 6.70512 8.57326C6.70512 8.52417 6.66532 8.48438 6.61623 8.48438C6.56714 8.48438 6.52734 8.52417 6.52734 8.57326C6.52734 8.62236 6.56714 8.66215 6.61623 8.66215Z" fill="#000080"/>
<path d="M6.81155 9.00004C6.86064 9.00004 6.90043 8.96025 6.90043 8.91115C6.90043 8.86206 6.86064 8.82227 6.81155 8.82227C6.76245 8.82227 6.72266 8.86206 6.72266 8.91115C6.72266 8.96025 6.76245 9.00004 6.81155 9.00004Z" fill="#000080"/>
<path d="M7.08889 9.27739C7.13798 9.27739 7.17778 9.23759 7.17778 9.1885C7.17778 9.13941 7.13798 9.09961 7.08889 9.09961C7.0398 9.09961 7 9.13941 7 9.1885C7 9.23759 7.0398 9.27739 7.08889 9.27739Z" fill="#000080"/>
<path d="M7.42483 9.4727C7.47392 9.4727 7.51372 9.4329 7.51372 9.38381C7.51372 9.33472 7.47392 9.29492 7.42483 9.29492C7.37573 9.29492 7.33594 9.33472 7.33594 9.38381C7.33594 9.4329 7.37573 9.4727 7.42483 9.4727Z" fill="#000080"/>
<path d="M7.80373 9.57426C7.85282 9.57426 7.89262 9.53446 7.89262 9.48537C7.89262 9.43628 7.85282 9.39648 7.80373 9.39648C7.75464 9.39648 7.71484 9.43628 7.71484 9.48537C7.71484 9.53446 7.75464 9.57426 7.80373 9.57426Z" fill="#000080"/>
<path d="M8.19436 9.57426C8.24345 9.57426 8.28325 9.53446 8.28325 9.48537C8.28325 9.43628 8.24345 9.39648 8.19436 9.39648C8.14527 9.39648 8.10547 9.43628 8.10547 9.48537C8.10547 9.53446 8.14527 9.57426 8.19436 9.57426Z" fill="#000080"/>
<path d="M8.57326 9.4727C8.62236 9.4727 8.66215 9.4329 8.66215 9.38381C8.66215 9.33472 8.62236 9.29492 8.57326 9.29492C8.52417 9.29492 8.48438 9.33472 8.48438 9.38381C8.48438 9.4329 8.52417 9.4727 8.57326 9.4727Z" fill="#000080"/>
<path d="M8.91311 9.27739C8.9622 9.27739 9.002 9.23759 9.002 9.1885C9.002 9.13941 8.9622 9.09961 8.91311 9.09961C8.86402 9.09961 8.82422 9.13941 8.82422 9.1885C8.82422 9.23759 8.86402 9.27739 8.91311 9.27739Z" fill="#000080"/>
<path d="M9.18654 9.00004C9.23564 9.00004 9.27543 8.96025 9.27543 8.91115C9.27543 8.86206 9.23564 8.82227 9.18654 8.82227C9.13745 8.82227 9.09766 8.86206 9.09766 8.91115C9.09766 8.96025 9.13745 9.00004 9.18654 9.00004Z" fill="#000080"/>
<path d="M9.38186 8.66215C9.43095 8.66215 9.47075 8.62236 9.47075 8.57326C9.47075 8.52417 9.43095 8.48438 9.38186 8.48438C9.33277 8.48438 9.29297 8.52417 9.29297 8.57326C9.29297 8.62236 9.33277 8.66215 9.38186 8.66215Z" fill="#000080"/>
<path d="M9.48342 8.28325C9.53251 8.28325 9.57231 8.24345 9.57231 8.19436C9.57231 8.14527 9.53251 8.10547 9.48342 8.10547C9.43433 8.10547 9.39453 8.14527 9.39453 8.19436C9.39453 8.24345 9.43433 8.28325 9.48342 8.28325Z" fill="#000080"/>
<path d="M9.48342 7.89262C9.53251 7.89262 9.57231 7.85282 9.57231 7.80373C9.57231 7.75464 9.53251 7.71484 9.48342 7.71484C9.43433 7.71484 9.39453 7.75464 9.39453 7.80373C9.39453 7.85282 9.43433 7.89262 9.48342 7.89262Z" fill="#000080"/>
<path d="M9.38186 7.51567C9.43095 7.51567 9.47075 7.47587 9.47075 7.42678C9.47075 7.37769 9.43095 7.33789 9.38186 7.33789C9.33277 7.33789 9.29297 7.37769 9.29297 7.42678C9.29297 7.47587 9.33277 7.51567 9.38186 7.51567Z" fill="#000080"/>
<path d="M9.18654 7.17582C9.23564 7.17582 9.27543 7.13603 9.27543 7.08694C9.27543 7.03784 9.23564 6.99805 9.18654 6.99805C9.13745 6.99805 9.09766 7.03784 9.09766 7.08694C9.09766 7.13603 9.13745 7.17582 9.18654 7.17582Z" fill="#000080"/>
<path d="M8.91311 6.90043C8.9622 6.90043 9.002 6.86064 9.002 6.81155C9.002 6.76245 8.9622 6.72266 8.91311 6.72266C8.86402 6.72266 8.82422 6.76245 8.82422 6.81155C8.82422 6.86064 8.86402 6.90043 8.91311 6.90043Z" fill="#000080"/>
<path d="M8.57326 6.70512C8.62236 6.70512 8.66215 6.66532 8.66215 6.61623C8.66215 6.56714 8.62236 6.52734 8.57326 6.52734C8.52417 6.52734 8.48438 6.56714 8.48438 6.61623C8.48438 6.66532 8.52417 6.70512 8.57326 6.70512Z" fill="#000080"/>
<path d="M8.19436 6.60356C8.24345 6.60356 8.28325 6.56376 8.28325 6.51467C8.28325 6.46558 8.24345 6.42578 8.19436 6.42578C8.14527 6.42578 8.10547 6.46558 8.10547 6.51467C8.10547 6.56376 8.14527 6.60356 8.19436 6.60356Z" fill="#000080"/>
<path d="M7.99766 8.39961C8.21857 8.39961 8.39766 8.22052 8.39766 7.99961C8.39766 7.7787 8.21857 7.59961 7.99766 7.59961C7.77674 7.59961 7.59766 7.7787 7.59766 7.99961C7.59766 8.22052 7.77674 8.39961 7.99766 8.39961Z" fill="#000080"/>
</g>
<defs>
<clipPath id="clip0_1963_46016">
<rect width="16" height="16" fill="white"/>
</clipPath>
</defs>
</svg>
