<svg width="134" height="182" viewBox="0 0 134 182" fill="none" xmlns="http://www.w3.org/2000/svg">
<path d="M122.103 22.5647L120.909 22.2627C118.157 21.5665 115.361 23.2333 114.665 25.9849L109.373 46.9028C108.676 49.6544 110.343 52.4503 113.095 53.1464L114.289 53.4485C117.04 54.1447 119.836 52.4779 120.532 49.7263L125.825 28.8084C126.52 26.0565 124.854 23.2609 122.103 22.5647Z" fill="#05070E"/>
<path d="M99.4065 16.9351L96.6051 16.2208C94.2842 15.6291 91.9237 17.0311 91.332 19.352L85.6982 41.343C85.1065 43.6639 86.5084 46.0244 88.8294 46.6161L91.6307 47.3304C93.9517 47.9221 96.3122 46.5202 96.9039 44.1992L102.538 22.2083C103.129 19.8873 101.727 17.5268 99.4065 16.9351Z" fill="#05070E"/>
<path d="M88.0283 60.1853L86.2119 59.7258C83.5313 59.0476 80.8096 60.671 80.1316 63.3506L54.4322 164.925C53.7539 167.606 55.3774 170.327 58.057 171.005L59.8733 171.465C62.554 172.143 65.2757 170.52 65.9536 167.84L91.6531 66.2657C92.3324 63.5852 90.709 60.8636 88.0283 60.1853Z" fill="#05070E"/>
<path d="M110.946 65.9847L110.22 65.8008C107.209 65.0392 104.152 66.8617 103.391 69.8719L83.2198 149.595C82.4582 152.605 84.2807 155.663 87.2909 156.424L88.0176 156.608C91.0278 157.37 94.0849 155.547 94.8465 152.537L115.018 72.8125C115.779 69.8034 113.955 66.746 110.946 65.9847Z" fill="#05070E"/>
<path d="M26.3452 104.473L25.0992 104.157C22.2611 103.439 19.379 105.158 18.6609 107.996L11.5221 136.211C10.804 139.049 12.5221 141.931 15.3603 142.65L16.6063 142.965C19.4444 143.683 22.3265 141.965 23.0446 139.127L30.1834 110.911C30.9012 108.074 29.1833 105.191 26.3452 104.473Z" fill="#05070E"/>
<path d="M48.4186 118.397L46.2384 117.845C43.7871 117.225 41.298 118.71 40.678 121.16L31.1966 158.635C30.5764 161.086 32.0611 163.575 34.5114 164.195L36.6916 164.747C39.1429 165.367 41.632 163.882 42.252 161.432L51.7334 123.957C52.3536 121.506 50.8689 119.017 48.4186 118.397Z" fill="#05070E"/>
<path d="M115.919 21.6506L117.113 21.9527C119.641 22.5922 121.171 25.1601 120.532 27.6882C120.532 27.6882 120.532 27.6883 120.532 27.6883L115.24 48.6062C114.6 51.1338 112.032 52.6649 109.504 52.0254L108.311 51.7233C105.783 51.0838 104.252 48.5155 104.891 45.9878L110.184 25.0699C110.823 22.5422 113.392 21.0111 115.919 21.6506Z" fill="#FFAE63" stroke="black" stroke-width="0.836597"/>
<path d="M94.4164 16.3209L94.4165 16.3209C96.5135 16.8555 97.7801 18.9881 97.2458 21.0849C97.2458 21.0851 97.2457 21.0853 97.2457 21.0854L91.612 43.0759L91.6118 43.0764C91.0772 45.1735 88.9444 46.4401 86.8474 45.9056L84.046 45.1913C81.9489 44.6566 80.6823 42.524 81.2167 40.427C81.2167 40.4269 81.2168 40.4268 81.2168 40.4268L86.8505 18.4363L86.8506 18.4358C87.3852 16.3387 89.518 15.072 91.6151 15.6066C91.6151 15.6066 91.6151 15.6066 91.6151 15.6066L94.4164 16.3209Z" fill="#FFAE63" stroke="black" stroke-width="0.836597"/>
<path d="M86.357 65.1434L86.3569 65.1435L60.6575 166.718C60.0362 169.174 57.542 170.661 55.0853 170.04L53.269 169.58C50.8132 168.959 49.3255 166.465 49.9471 164.008L75.6465 62.4337C76.2678 59.9779 78.762 58.4902 81.2187 59.1118L83.035 59.5713C85.4919 60.193 86.9794 62.6872 86.357 65.1434Z" fill="#FFAE63" stroke="black" stroke-width="0.836597"/>
<path d="M105.23 65.1887L105.957 65.3726C108.742 66.0773 110.43 68.9073 109.725 71.6924L89.5543 151.417C88.8494 154.203 86.0197 155.89 83.2335 155.185L82.5067 155.001C79.7205 154.296 78.0336 151.466 78.7386 148.68L98.9094 68.9569C99.6144 66.1707 102.444 64.4838 105.23 65.1887Z" fill="#FFAE63" stroke="black" stroke-width="0.836597"/>
<path d="M20.1099 103.543L21.3559 103.859C23.97 104.52 25.5523 107.176 24.8912 109.789L17.7523 138.004C17.0909 140.619 14.4363 142.201 11.8221 141.54L10.5762 141.224C7.96199 140.563 6.37944 137.908 7.04086 135.294L14.1797 107.079C14.8411 104.465 17.4957 102.882 20.1099 103.543Z" fill="#FFAE63" stroke="black" stroke-width="0.836597"/>
<path d="M41.249 117.231L43.4293 117.783C45.6556 118.346 47.0047 120.608 46.4412 122.835L36.9597 160.31C36.3964 162.536 34.1348 163.885 31.9075 163.322L29.7273 162.77C27.5009 162.207 26.1519 159.945 26.7154 157.718L36.1968 120.243C36.7601 118.017 39.0218 116.668 41.249 117.231Z" fill="#FFAE63" stroke="black" stroke-width="0.836597"/>
<path d="M40.5079 40.0628C40.4085 39.5012 40.1603 38.9764 39.7893 38.5431C39.4183 38.1099 38.938 37.784 38.3983 37.5993L28.8308 34.3265C28.6679 34.2664 28.529 34.1547 28.4354 34.0085C28.3417 33.8623 28.2982 33.6895 28.3116 33.5164C28.325 33.3432 28.3945 33.1792 28.5096 33.0491C28.6247 32.9191 28.779 32.8301 28.9492 32.7957L38.9064 31.0322C39.4679 30.9329 39.9925 30.685 40.4257 30.3142C40.859 29.9435 41.185 29.4635 41.3699 28.9241L44.6426 19.3566C44.7024 19.193 44.814 19.0535 44.9604 18.9592C45.1069 18.865 45.2802 18.8213 45.4538 18.8347C45.6274 18.8482 45.7919 18.918 45.9221 19.0337C46.0523 19.1493 46.1411 19.3044 46.175 19.4752L47.9353 29.4322C48.0348 29.9938 48.2829 30.5186 48.654 30.9519C49.025 31.3851 49.5053 31.7111 50.045 31.8957L59.6126 35.1669C59.7769 35.2262 59.9172 35.3378 60.012 35.4845C60.1068 35.6312 60.1508 35.8049 60.1374 35.9791C60.1239 36.1532 60.0536 36.3181 59.9374 36.4485C59.8212 36.5789 59.6654 36.6676 59.4939 36.7009L49.537 38.4612C48.9753 38.5607 48.4505 38.8088 48.0173 39.1798C47.584 39.5509 47.2581 40.0312 47.0734 40.5709L43.8006 50.1384C43.7409 50.302 43.6293 50.4415 43.4828 50.5358C43.3364 50.63 43.1631 50.6737 42.9895 50.6603C42.8159 50.6469 42.6514 50.577 42.5212 50.4614C42.3909 50.3457 42.3021 50.1906 42.2683 50.0198L40.5079 40.0628Z" fill="#FFAE63" stroke="black" stroke-width="1.07074" stroke-linecap="round" stroke-linejoin="round"/>
<g clip-path="url(#clip0_1961_43812)">
<path d="M104.192 163.36C104.14 163.066 104.01 162.792 103.817 162.566C103.623 162.34 103.372 162.169 103.09 162.073L98.0929 160.363C98.0078 160.332 97.9353 160.274 97.8863 160.197C97.8374 160.121 97.8147 160.031 97.8217 159.94C97.8287 159.85 97.865 159.764 97.9251 159.696C97.9852 159.628 98.0658 159.582 98.1547 159.564L103.355 158.643C103.649 158.591 103.923 158.461 104.149 158.268C104.375 158.074 104.546 157.823 104.642 157.542L106.352 152.545C106.383 152.459 106.441 152.386 106.518 152.337C106.594 152.288 106.684 152.265 106.775 152.272C106.866 152.279 106.952 152.315 107.02 152.376C107.088 152.436 107.134 152.517 107.152 152.607L108.071 157.807C108.123 158.1 108.253 158.375 108.447 158.601C108.64 158.827 108.891 158.997 109.173 159.094L114.17 160.802C114.256 160.833 114.33 160.892 114.379 160.968C114.429 161.045 114.452 161.136 114.445 161.227C114.437 161.318 114.401 161.404 114.34 161.472C114.279 161.54 114.198 161.586 114.108 161.604L108.908 162.523C108.615 162.575 108.34 162.705 108.114 162.898C107.888 163.092 107.718 163.343 107.621 163.625L105.912 168.622C105.881 168.708 105.822 168.78 105.746 168.83C105.669 168.879 105.579 168.902 105.488 168.895C105.397 168.888 105.311 168.851 105.243 168.791C105.175 168.73 105.129 168.649 105.111 168.56L104.192 163.36Z" fill="#FFAE63" stroke="black" stroke-width="0.745695" stroke-linecap="round" stroke-linejoin="round"/>
<path d="M114.26 171.886C114.229 171.71 114.152 171.546 114.035 171.41C113.919 171.274 113.768 171.172 113.599 171.114L110.601 170.088C110.55 170.07 110.506 170.035 110.477 169.989C110.448 169.943 110.434 169.889 110.438 169.835C110.443 169.78 110.464 169.729 110.5 169.688C110.536 169.647 110.585 169.619 110.638 169.609L113.759 169.056C113.935 169.025 114.099 168.947 114.235 168.831C114.37 168.715 114.473 168.564 114.531 168.395L115.556 165.397C115.575 165.346 115.61 165.302 115.656 165.273C115.702 165.243 115.756 165.229 115.81 165.233C115.865 165.238 115.916 165.26 115.957 165.296C115.998 165.332 116.026 165.381 116.036 165.434L116.588 168.555C116.619 168.731 116.697 168.895 116.813 169.031C116.93 169.167 117.08 169.269 117.249 169.327L120.248 170.352C120.299 170.37 120.343 170.405 120.373 170.451C120.402 170.497 120.416 170.552 120.412 170.606C120.408 170.661 120.386 170.713 120.349 170.753C120.313 170.794 120.264 170.822 120.21 170.832L117.09 171.384C116.914 171.415 116.75 171.493 116.614 171.609C116.478 171.726 116.376 171.876 116.318 172.045L115.292 175.044C115.274 175.095 115.239 175.139 115.193 175.168C115.147 175.198 115.093 175.211 115.038 175.207C114.984 175.203 114.932 175.181 114.891 175.145C114.851 175.109 114.823 175.06 114.812 175.006L114.26 171.886Z" fill="#FFAE63" stroke="black" stroke-width="0.745695" stroke-linecap="round" stroke-linejoin="round"/>
</g>
<defs>
<clipPath id="clip0_1961_43812">
<rect width="26.676" height="26.676" fill="white" transform="translate(96.4219 149.238) rotate(4.4248)"/>
</clipPath>
</defs>
</svg>
